<svg xmlns="http://www.w3.org/2000/svg" xmlns:xlink="http://www.w3.org/1999/xlink" version="1.1" x="0px" y="0px" viewBox="0 0 1000 1250" style="enable-background:new 0 0 1000 1000;" xml:space="preserve"><g><path d="M813.7,711.8l-26.9-4.8c0.3-4.7,0.5-9.8,0.5-15.4c0.1-12.9-0.8-27.9-3.3-43.8c-1.3-7.9-3-16-5.3-24.1   c-2.3-8.1-5-16.2-8.3-24.1c-3.3-7.9-7.1-15.5-11.4-22.7c-4.3-7.2-9-13.9-14-20.1c-5-6.1-10.2-11.7-15.4-16.6   c-5.2-4.9-10.5-9.3-15.5-12.9c-5-3.7-9.8-6.9-14.1-9.4c-1.1-0.7-2.1-1.3-3.1-1.9c-1-0.6-2-1.1-3-1.7c-1.9-1.1-3.6-2-5.3-2.8   c-1.6-0.8-3-1.5-4.3-2.2c-1.3-0.6-2.3-1.1-3.2-1.5c-1.6-0.8-2.6-1.2-2.7-1.2c0.1,0.1,1,0.6,2.5,1.5c0.8,0.5,1.8,1.1,3,1.9   c1.2,0.7,2.5,1.6,4,2.6c1.5,1,3.1,2.1,4.9,3.4c0.9,0.6,1.8,1.3,2.7,2c0.9,0.7,1.9,1.4,2.9,2.2c3.9,3,8.2,6.6,12.7,10.8   c4.5,4.1,9,8.9,13.4,14.1c4.5,5.3,8.8,11.1,12.8,17.4c4,6.3,7.7,13.1,10.9,20.2c3.2,7.1,5.9,14.5,8.1,22.1   c2.2,7.5,3.9,15.2,5.1,22.9c1.2,7.6,1.9,15.2,2.3,22.5c0.7,14.7-0.1,28.4-1.5,40c-0.5,4.3-1.1,8.4-1.8,12.1L201.5,601.6   C228.2,453.3,386.9,357.7,556,388.1C725,418.6,840.4,563.5,813.7,711.8z"/><path d="M564.4,298.2c-21.2-3.8-41.5,10.3-45.3,31.5c-3.8,21.2,10.3,41.5,31.5,45.3c21.2,3.8,41.5-10.3,45.3-31.5   C599.7,322.3,585.6,302,564.4,298.2z M585.2,325.3c-1.6,9.1-10.3,15.1-19.4,13.5c-9.1-1.6-15.1-10.3-13.5-19.4   c1.6-9.1,10.3-15.1,19.4-13.5C580.8,307.5,586.8,316.2,585.2,325.3z"/><path d="M841.6,755H175.5c-6.1,0-11-5-11-11l0,0c0-6.1,5-11,11-11h666.1c6.1,0,11,5,11,11l0,0   C852.6,750.1,847.7,755,841.6,755z"/><path d="M200.8,475.3c5.6,14.9,5.6,28.3,1.5,38c-3.7,9.7-11.5,15.8-11.1,15.8c-0.5,0,2.6-6,1.5-15.8   c-0.7-9.7-5.5-23.2-11.1-38c-5.6-14.9-5.6-28.3-1.5-38c3.7-9.7,11.5-15.8,11.1-15.8c0.5,0-2.6,6-1.5,15.8   C190.4,447,195.3,460.4,200.8,475.3z"/><path d="M221.8,421.3c5.6,14.9,5.6,28.3,1.5,38c-3.7,9.7-11.5,15.8-11.1,15.8c-0.5,0,2.6-6,1.5-15.8   c-0.7-9.7-5.5-23.2-11.1-38c-5.6-14.9-5.6-28.3-1.5-38c3.7-9.7,11.5-15.8,11.1-15.8c0.5,0-2.6,6-1.5,15.8   C211.4,393,216.3,406.4,221.8,421.3z"/><path d="M344.6,298.8c-5.6,14.9-5.6,28.3-1.5,38c3.7,9.7,11.5,15.8,11.1,15.8c0.5,0-2.6-6-1.5-15.8   c0.7-9.7,5.5-23.2,11.1-38c5.6-14.9,5.6-28.3,1.5-38c-3.7-9.7-11.5-15.8-11.1-15.8c-0.5,0,2.6,6,1.5,15.8   C355,270.5,350.2,283.9,344.6,298.8z"/></g><text x="0" y="1015" fill="#000000" font-size="5px" font-weight="bold" font-family="'Helvetica Neue', Helvetica, Arial-Unicode, Arial, Sans-serif">Created by leo-graph.com</text><text x="0" y="1020" fill="#000000" font-size="5px" font-weight="bold" font-family="'Helvetica Neue', Helvetica, Arial-Unicode, Arial, Sans-serif">from the Noun Project</text></svg>