<svg xmlns="http://www.w3.org/2000/svg" data-name="Layer 1" viewBox="0 0 100 125" x="0px" y="0px"><title>Noun_Project_50Icon_5px_grid - thee iconen line thin - samengesteld pad</title><path d="M50.49,58.56h0L40.33,50.42a.93.93,0,0,0-.5-.21l-13.89-1.8h0a1.23,1.23,0,0,0-.38,0,1,1,0,0,0-.68.61l-6,15.48a1,1,0,0,0,.29,1.14l9.69,8,.05,0,.1,0a1,1,0,0,0,.28.11l.07,0,14.38,2h.13a1,1,0,0,0,.94-.64l6-15.49a.93.93,0,0,0-.32-1.13Zm-4.07-.71L35.91,56.41l-6.77-5.57L39.3,52.15Zm-20.17-6.8,8,6.63L29.1,71.2,21,64.57Zm17,22.67L30.92,72l.12-.3,5.1-13.27,12.35,1.69ZM80,50.43a1,1,0,0,0-.45-.77,1.54,1.54,0,0,0-.34-.12v0L67.61,47.06a.93.93,0,0,0-.55,0L54.88,51.52h0a1.1,1.1,0,0,0-.32.17,1,1,0,0,0-.34.83L55.39,68a1,1,0,0,0,.77.9l11.12,2.54.22,0a1,1,0,0,0,.34-.06l12.64-4.49a1,1,0,0,0,.67-1ZM67.47,49.08l7.85,1.66-9,3.21-7.53-1.71ZM57.33,67.14l-1-13.41L65.4,55.8l1,13.41Zm11.07,2L68.32,68,67.4,55.68l10.69-3.8,1,13.43ZM36.66,42.19,46,46.33h0a1,1,0,0,0,.39.08h.16l11.93-1.94a1,1,0,0,0,.83-.86l1.75-14.15a1,1,0,0,0-.3-.84.71.71,0,0,0-.3-.18v0l-9.76-4.15a1.07,1.07,0,0,0-.56-.06l-11.5,1.95v0a1,1,0,0,0-.33.1,1,1,0,0,0-.5.74L36.07,41.16A1,1,0,0,0,36.66,42.19Zm20.77.42-9.87,1.6,1.49-12.07,9.87-1.61ZM50.2,26.22l6.31,2.68-8.23,1.34-6-2.67ZM39.64,28.6l7.43,3.28L45.57,44l-7.42-3.28Z"/></svg>